<svg width="20" height="20" viewBox="0 0 20 20" fill="none" xmlns="http://www.w3.org/2000/svg">
<path d="M12.25 17.999V13.499C12.25 13.3001 12.1709 13.1093 12.0303 12.9686C11.8897 12.828 11.6989 12.749 11.5 12.749H8.5C8.3011 12.749 8.1103 12.828 7.96968 12.9686C7.82905 13.1093 7.75 13.3001 7.75 13.499V17.999C7.75 18.1979 7.67095 18.3887 7.53032 18.5293C7.3897 18.67 7.1989 18.749 7 18.749H2.5C2.30109 18.749 2.11032 18.67 1.96967 18.5293C1.82902 18.3887 1.75 18.1979 1.75 17.999V9.32709C1.75168 9.22329 1.77411 9.12091 1.81597 9.02589C1.85783 8.93094 1.91828 8.84529 1.99375 8.77396L9.49375 1.95835C9.63197 1.83187 9.81258 1.76172 10 1.76172C10.1874 1.76172 10.368 1.83187 10.5062 1.95835L18.0062 8.77396C18.0817 8.84529 18.1422 8.93094 18.184 9.02589C18.2259 9.12091 18.2484 9.22329 18.25 9.32709V17.999C18.25 18.1979 18.1709 18.3887 18.0303 18.5293C17.8897 18.67 17.6989 18.749 17.5 18.749H13C12.8011 18.749 12.6103 18.67 12.4697 18.5293C12.3291 18.3887 12.25 18.1979 12.25 17.999Z" stroke="#FF8A2E" stroke-width="2" stroke-linecap="round" stroke-linejoin="round"/>
</svg>
