<svg width="17" height="20" viewBox="0 0 17 20" fill="none" xmlns="http://www.w3.org/2000/svg">
<path d="M15.7781 8.71631L2.27812 0.475702C2.05327 0.333202 1.79355 0.25521 1.52737 0.250252C1.26121 0.245295 0.998782 0.313552 0.768757 0.447577C0.535327 0.575647 0.34074 0.764265 0.205455 0.993585C0.0701698 1.2229 -0.000803144 1.48445 6.85639e-06 1.7507V18.2507C-0.000803144 18.5169 0.0701698 18.7785 0.205455 19.0078C0.34074 19.2372 0.535327 19.4258 0.768757 19.5538C0.998782 19.6878 1.26121 19.7561 1.52737 19.7511C1.79355 19.7462 2.05327 19.6682 2.27812 19.5257L15.7781 11.2851C15.9994 11.1516 16.1824 10.9632 16.3095 10.7382C16.4366 10.5132 16.5033 10.2591 16.5033 10.0007C16.5033 9.74231 16.4366 9.48829 16.3095 9.26321C16.1824 9.03821 15.9994 8.84981 15.7781 8.71631Z" fill="#0A0A0A"/>
</svg>
